<svg width="511" height="79" xmlns="http://www.w3.org/2000/svg"><g fill="none"><path d="M510.1 39.4c0 21.7-17.6 39.4-39.4 39.4-21.8 0-39.4-17.6-39.4-39.4 0-21.8 17.6-39.4 39.4-39.4 21.8 0 39.4 17.6 39.4 39.4" fill="#149AD7"/><path d="M480.4 18.9H467l-2.9 13.2h-14l-2.8 12.8h14.1L458.1 60h21c7.1 0 16.3-8.6 16.3-16.3 0-7.7-5.7-11.6-10.8-11.6h-7l2.9-13.2h-.1m-4.9 22.2h6.5c.9 0 2.6.8 2.6 2.9 0 3-3.6 6.3-6.6 6.3h-4.5l2-9.2M274.8 28.5h-7.7v20.2c0 1.3-.1 2.6-.4 3.8-.3 1.2-.8 2.2-1.4 3-.7.8-1.5 1.5-2.6 2s-2.4.7-4 .7-3.7-.6-4.9-1.9c-1.2-1.3-1.8-3.4-1.8-6.5V28.5h-7.7v22.1c0 4.6 1 8 3.1 10.3 2 2.3 5.4 3.4 9.9 3.4s3.8-.5 5.7-1.6c1.9-1.1 3.3-2.5 4.2-4.2h.1v4.8h7.5V28.5m-68.5 12.9h14.9c2.6 0 4.5.6 6 1.9 1.4 1.3 2.1 3.1 2.1 5.5s-.7 4.3-2.1 5.6c-1.4 1.3-3.4 2-6 2h-14.9v-15m-8.4 21.9H220c3.1 0 5.8-.3 8-1s4.1-1.6 5.5-2.8c1.4-1.2 2.5-2.6 3.2-4.2.7-1.6 1-3.4 1-5.3 0-3.3-.8-6-2.3-8.2-1.5-2.2-3.8-3.6-6.7-4.2 2.2-1.1 3.9-2.4 5.1-4.1 1.2-1.7 1.8-3.8 1.8-6.2 0-4-1.3-7-3.9-9-2.6-2-6.1-3-10.4-3h-23.4v48.1m8.4-41.3H220c2.3 0 4 .5 5.3 1.5 1.2 1 1.8 2.7 1.8 5.1 0 2.4-.7 3.8-2 4.9-1.3 1.1-3 1.7-5 1.7h-13.7V22s-.1.1-.1 0M86.1 63.3h7.7V28.5h-7.7v34.8m0-40.8h7.7v-7.3h-7.7v7.3M71.2 50.4c-.3 1.5-.9 2.8-1.7 3.9-.8 1.1-1.8 2.1-3 2.8-1.2.7-2.7 1.1-4.4 1.1-1.7 0-3-.3-4.1-.9-1.2-.6-2.2-1.5-3.1-2.6-.9-1.1-1.5-2.4-1.9-3.9-.4-1.5-.6-3.1-.6-4.9 0-3.7.8-6.7 2.5-9 1.6-2.2 4.1-3.4 7.3-3.4s3 .3 4.2 1c1.2.7 2.2 1.6 3 2.8.8 1.1 1.4 2.5 1.8 3.9.4 1.5.6 3 .6 4.6 0 1.6-.2 3-.5 4.5M44.9 76.1h7.7V58.7c.6.9 1.3 1.8 2.2 2.5.9.7 1.8 1.3 2.9 1.7 1 .4 2.1.8 3.2 1 1.1.2 2.2.3 3.4.3 2.6 0 4.8-.5 6.7-1.5 1.9-1 3.4-2.4 4.7-4 1.2-1.7 2.2-3.6 2.8-5.8.6-2.2.9-4.5.9-6.8s-.3-5-1-7.2-1.7-4.2-3-5.9c-1.3-1.7-3-3-5.1-4-2-1-4.4-1.4-7.2-1.4s-4.3.4-6.3 1.3c-1.9.9-3.4 2.3-4.5 4.3v-4.7H45v47.7h-.1m112.9-50.1v37.2h-7.4v-4.8h-.1c-2.1 3.9-6.2 5.8-11 5.8-10.2 0-16.7-7.2-16.7-19s6.6-18.5 15.4-18.5 9.7 2.1 11.9 5.6h.1v-6.2h7.9-.1v-.1m-17.6 32c6.3 0 10-5.5 10-12.6S146.5 33 140.3 33s-9.9 5.4-9.9 13 3.7 12.2 9.9 12.2c0 0-.1 0-.1-.1m192.8-32v37.2h-7.4v-4.8h-.1c-2.1 3.9-6.2 5.8-11 5.8-10.2 0-16.7-7.2-16.7-19s6.6-18.5 15.4-18.5 9.7 2.1 11.9 5.6h.1v-6.2h7.9-.1v-.1m-17.5 32c6.3 0 10-5.5 10-12.6S321.8 33 315.6 33s-9.9 5.4-9.9 13 3.7 12.2 9.9 12.2c0 0-.1 0-.1-.1m-52.7-42.6h7.7v7.3h-7.7zm-14.4 0h7.7v7.3h-7.7zM19.1 64.4c3.7 0 8.3-.7 11-2 2.7-1.3 4.7-3.1 6.2-5.3 1.4-2.2 2.1-4.6 2.1-7.1s-.8-5.6-2.3-7.5c-1.5-1.9-3.3-3.2-5.5-4.1-2.2-.9-4.9-1.8-8.3-2.7-2.6-.7-4.6-1.3-6.1-1.8-1.5-.6-2.7-1.3-3.7-2.3-1-1-1.4-2.2-1.4-3.7 0-2.2.8-3.9 2.3-5.1 1.5-1.2 3.5-1.8 5.9-1.8 2.4 0 4.8.6 6.5 1.9 1.6 1.3 2.5 2.8 2.7 4.6h9.3c-.3-4.2-2.1-7.4-5.3-9.8-3.2-2.4-7.3-3.6-12.3-3.6-5 0-6.6.6-9.3 1.7-2.7 1.1-4.7 2.8-6.2 4.9-1.5 2.1-2.2 4.6-2.2 7.4 0 2.8.7 5.5 2.2 7.4 1.5 1.8 3.3 3.2 5.4 4.1 2.1.9 4.8 1.7 8.2 2.6 2.7.7 4.8 1.3 6.3 1.8 1.5.6 2.8 1.4 3.8 2.4s1.5 2.4 1.5 4-.8 3.9-2.4 5.2c-1.6 1.3-5.3 2-8.2 2-2.9 0-4.9-1-6.6-2.1-1.6-1.4-3.4-3.6-3.6-5.7H0c0 2.8 1.8 5.8 3.4 7.9 1.6 2.1 3.8 3.8 6.5 4.9 2.8 1.2 5.9 1.7 9.3 1.7m79.4-30.1h5.8v20.5c0 1.4.2 2.7.4 3.8.2 1.1.7 2.1 1.4 2.8.7.7 1.7 1.3 2.9 1.7 1.2.4 2.9.6 4.9.6h2.5c.8 0 1.6-.2 2.5-.3v-5.9c-.5 0-1.1.2-1.6.2h-1.6c-.9 0-1.5 0-2-.3s-.9-.5-1.1-.9c-.2-.4-.4-.9-.5-1.5V34.2h6.9v-5.7h-6.9V18.1h-7.7v10.4h-5.8v5.8m72.8-19.1h-7.7v39.5c0 1.4.2 2.7.4 3.8.2 1.1.7 2.1 1.4 2.8.7.7 1.7 1.3 2.9 1.7 1.2.4 2.9.6 4.9.6h2.5c.8 0 1.6-.2 2.5-.3v-5.9c-.5 0-1.1.2-1.6.2h-1.6c-.9 0-1.5 0-2-.3s-.9-.5-1.1-.9c-.2-.4-.4-.9-.5-1.5 0-.6-.1-1.3-.1-2.1V15.1c0 .067 0 .067 0 0m117.9.1h-7.7v39.5c0 1.4.2 2.7.4 3.8.2 1.1.7 2.1 1.4 2.8.7.7 1.7 1.3 2.9 1.7 1.2.4 2.9.6 4.9.6h2.5c.8 0 1.6-.2 2.5-.3v-5.9c-.5 0-1.1.2-1.6.2h-1.6c-.9 0-1.5 0-2-.3s-.9-.5-1.1-.9c-.2-.4-.4-.9-.5-1.5 0-.6-.1-1.3-.1-2.1V15.1c0 .067 0 .067 0 0m87.4 48.2h7.7V42.8c0-1.3.2-2.4.6-3.6.4-1.1 1-2.1 1.7-2.9.7-.8 1.6-1.5 2.6-2s2.2-.7 3.5-.7c2.3 0 4 .6 5 1.9 1.1 1.2 1.7 3.2 1.8 6v21.9h7.7V39.5c0-3.9-1.1-6.9-3.3-8.9-2.2-2-5.2-3-9-3s-4.4.5-6.2 1.6c-1.9 1.1-3.3 2.4-4.2 3.9h-.1V15.3h-7.7v48.1h-.1m-5.7-23.3c-.2-2.2-.7-4-1.6-5.6-.9-1.6-2.1-2.9-3.5-3.9s-3-1.8-4.8-2.3c-1.8-.5-3.7-.8-5.8-.8-2.1 0-5.4.5-7.5 1.4-2.1 1-3.9 2.3-5.4 4-1.5 1.7-2.5 3.7-3.2 6-.7 2.3-1.1 4.7-1.1 7.3 0 2.6.4 4.9 1.1 7.1.7 2.2 1.8 4.1 3.3 5.7 1.4 1.6 3.2 2.9 5.3 3.8 2.1.9 4.5 1.4 7.2 1.4 4.5 0 8.1-1.2 10.8-3.6 2.7-2.4 4.4-5.9 5.1-10.4h-7.7c-.4 2.5-1.3 4.5-2.7 5.9-1.5 1.4-3.3 2.1-5.6 2.1s-3.1-.3-4.2-1c-1.2-.7-2.1-1.6-2.9-2.7-.7-1.1-1.3-2.4-1.6-3.8-.3-1.4-.5-2.9-.5-4.3 0-2.6.3-4.8.9-6.4.6-1.6 1.4-2.9 2.4-3.8.9-.9 2-1.5 3.1-1.9 1.1-.3 2.2-.5 3.2-.5 2.2 0 3.9.5 5.4 1.6 1.4 1.1 2.3 2.7 2.6 4.9h7.7v-.2" fill="#FFF"/></g></svg>